<svg width="25" height="24" viewBox="0 0 25 24" fill="none" xmlns="http://www.w3.org/2000/svg">
<path d="M25 8.33333H15.1785V2.67857C15.1785 1.20161 13.977 0 12.4999 0C11.0229 0 9.82137 1.20161 9.82137 2.67857V8.33333H0V13.6905H1.68375L4.0647 23.2143H20.9352L23.3161 13.6905H25V8.33333ZM5.45899 21.4286L3.52446 13.6905H21.4754L19.5409 21.4286H5.45899ZM12.4999 1.78571C12.9923 1.78571 13.3928 2.18625 13.3928 2.67857V11.9048H11.6071V2.67857C11.6071 2.18625 12.0076 1.78571 12.4999 1.78571ZM1.78571 10.119H9.82137V11.9048H1.78571V10.119ZM23.2143 11.9048H15.1785V10.119H23.2143V11.9048Z" fill="white"/>
<path d="M17.2618 16.6071H7.73804V18.3929H17.2618V16.6071Z" fill="white"/>
</svg>
