<svg width="150" height="70" viewBox="0 0 242 222" fill="none" xmlns="http://www.w3.org/2000/svg">
<path d="M185.153 52.7487C185.153 60.08 179.816 64.5387 175.919 67.8107C174.443 69.05 171.695 71.3113 171.703 72.156C171.729 75.4693 169.065 78.1153 165.751 78.1153C165.735 78.1153 165.718 78.1153 165.701 78.1153C162.411 78.1153 159.729 75.5507 159.703 72.254C159.65 65.756 164.392 61.8647 168.203 58.6653C171.193 56.1547 173.153 54.388 173.153 52.7713C173.153 49.4987 170.491 46.836 167.218 46.836C163.944 46.836 161.281 49.4987 161.281 52.7713C161.281 56.0853 158.595 58.7713 155.281 58.7713C151.967 58.7713 149.281 56.0853 149.281 52.7713C149.281 42.882 157.327 34.836 167.217 34.836C177.107 34.8353 185.153 42.8587 185.153 52.7487ZM165.867 83.654C162.553 83.654 160 86.34 160 89.654V89.7C160 93.014 162.554 95.6773 165.867 95.6773C169.181 95.6773 171.867 92.968 171.867 89.654C171.867 86.34 169.181 83.654 165.867 83.654ZM44.928 125.449C41.614 125.449 38.928 128.135 38.928 131.449C38.928 134.763 41.614 137.449 44.928 137.449H45.428C48.742 137.449 51.428 134.763 51.428 131.449C51.428 128.135 48.742 125.449 45.428 125.449H44.928ZM65.7807 125.449C62.4667 125.449 59.7807 128.135 59.7807 131.449C59.7807 134.763 62.4667 137.449 65.7807 137.449H66.28C69.594 137.449 72.28 134.763 72.28 131.449C72.28 128.135 69.594 125.449 66.28 125.449H65.7807ZM242 29.6167V97.1507C242 113.141 229.179 126.116 213.189 126.116H135.377C133.856 126.116 132.603 126.107 131.555 126.085C130.457 126.063 129.221 126.054 128.739 126.107C128.237 126.441 127.007 127.568 125.821 128.661C125.351 129.093 124.819 129.569 124.245 130.093L102.23 150.159C100.474 151.761 97.876 152.175 95.7013 151.217C93.5267 150.257 92 148.104 92 145.727V82.116H29.1467C19.772 82.116 12 89.798 12 99.1713V166.705C12 176.079 19.7727 183.449 29.1467 183.449H116.063C117.559 183.449 118.959 184.137 120.065 185.146L138 201.682V144.656C138 141.342 140.686 138.656 144 138.656C147.314 138.656 150 141.342 150 144.656V215.281C150 217.658 148.64 219.779 146.465 220.739C145.687 221.082 144.905 221.217 144.087 221.217C142.618 221.217 141.169 220.614 140.041 219.585L113.737 195.449H29.1467C13.156 195.449 0 182.695 0 166.705V99.1713C0 83.1813 13.156 70.116 29.1467 70.116H92V29.6167C92 13.626 105.257 0.782669 121.247 0.782669H213.189C229.179 0.782669 242 13.626 242 29.6167ZM230 29.6167C230 20.2427 222.562 12.7827 213.189 12.7827H121.247C111.873 12.7827 104 20.2427 104 29.6167V76.172V132.128L116.063 121.226C116.622 120.716 117.248 120.249 117.705 119.828C123.213 114.752 124.623 113.941 131.808 114.089C132.788 114.109 133.955 114.117 135.377 114.117H213.189C222.562 114.117 230 106.525 230 97.1513V29.6167Z" fill="#E1E1E1" fill-opacity="0.67"/>
</svg>
